<svg xmlns="http://www.w3.org/2000/svg" width="24" height="24" viewBox="0 0 24 24"><g transform="translate(-2)"><path d="M17.969,24.042a10.8,10.8,0,1,1,4.548-3.4c-.012.016-.024.032-.035.049a.626.626,0,0,0,.105.81.578.578,0,0,0,.837-.067l.041-.053a12,12,0,1,0-3.445,3l.058-.034a.578.578,0,0,0,.18-.82.626.626,0,0,0-.788-.214l-.053.028a10.784,10.784,0,0,1-1.448.7Z" transform="translate(0 -2)" fill="#565658" fill-rule="evenodd"/><path d="M12.4,8.6a1.2,1.2,0,1,0-1.2-1.2A1.2,1.2,0,0,0,12.4,8.6Zm0,1.2A2.4,2.4,0,1,0,10,7.4,2.4,2.4,0,0,0,12.4,9.8Z" transform="translate(1.6 -1.4)" fill="#565658" fill-rule="evenodd"/><path d="M14.8,12.4v6a2.4,2.4,0,1,1-4.8,0v-6a2.4,2.4,0,0,1,4.8,0Zm-2.4-1.2a1.2,1.2,0,0,0-1.2,1.2v6a1.2,1.2,0,0,0,2.4,0v-6A1.2,1.2,0,0,0,12.4,11.2Z" transform="translate(1.6 -0.4)" fill="#565658" fill-rule="evenodd"/></g></svg>