<svg xmlns="http://www.w3.org/2000/svg" width="24" height="24" viewBox="0 0 24 24"><g transform="translate(0.001)"><g transform="translate(19.681 3.381)"><path d="M420.418,73.08a.469.469,0,1,1,.331-.137A.472.472,0,0,1,420.418,73.08Z" transform="translate(-419.949 -72.143)" fill="#565658"/></g><g transform="translate(-0.001)"><path d="M12,24a11.991,11.991,0,0,1-6.947-2.212l-3.1.83a.469.469,0,0,1-.574-.574l.83-3.1A12,12,0,0,1,18.795,2.114a.469.469,0,0,1-.532.772A11.062,11.062,0,0,0,3.1,18.574a.469.469,0,0,1,.076.4L2.5,21.5l2.528-.678a.469.469,0,0,1,.4.076A11.063,11.063,0,0,0,21.113,5.736a.469.469,0,1,1,.772-.532,12,12,0,0,1-9.046,18.767Q12.418,24,12,24Z" transform="translate(0.001 0)" fill="#565658"/></g><g transform="translate(7.378 4.301)"><path d="M161.983,103.137a1.476,1.476,0,0,1-1.478-1.474,4.064,4.064,0,0,1,2.259-3.643,1.754,1.754,0,0,0,.961-1.646,1.85,1.85,0,0,0-1.66-1.66,1.752,1.752,0,0,0-1.739,1.181,1.491,1.491,0,0,1-1.389,1.02h-.015a1.486,1.486,0,0,1-1.2-.606,1.444,1.444,0,0,1-.212-1.316,4.7,4.7,0,1,1,6.576,5.663,1.128,1.128,0,0,0-.634,1.006,1.475,1.475,0,0,1-1.474,1.474Zm0-9.362q.064,0,.129,0a2.769,2.769,0,0,1,2.553,2.553,2.693,2.693,0,0,1-1.476,2.527,3.132,3.132,0,0,0-1.743,2.805.538.538,0,0,0,1.076,0,2.061,2.061,0,0,1,1.15-1.844,3.77,3.77,0,0,0,2.068-3.538,3.763,3.763,0,0,0-7.332-1,.517.517,0,0,0,.077.471.539.539,0,0,0,.439.223h.006a.553.553,0,0,0,.511-.384,2.691,2.691,0,0,1,.689-1.077A2.661,2.661,0,0,1,161.98,93.775Z" transform="translate(-157.441 -91.761)" fill="#565658"/><g transform="translate(3.064 12.452)"><path d="M224.3,360.408a1.476,1.476,0,1,1,1.476-1.476A1.477,1.477,0,0,1,224.3,360.408Zm0-2.014a.538.538,0,1,0,.538.538A.539.539,0,0,0,224.3,358.394Z" transform="translate(-222.821 -357.457)" fill="#565658"/></g></g></g></svg>