<svg xmlns="http://www.w3.org/2000/svg" width="19.029" height="24" viewBox="0 0 19.029 24"><g transform="translate(-53.02)"><g transform="translate(53.02)"><path d="M72.038,19.791,70.966,6.286a1.688,1.688,0,0,0-1.675-1.552H67.174v-.1a4.639,4.639,0,0,0-9.278,0v.1H55.779A1.687,1.687,0,0,0,54.1,6.284L53.031,19.793A3.908,3.908,0,0,0,56.928,24H68.142a3.908,3.908,0,0,0,3.9-4.209ZM59.3,4.639a3.233,3.233,0,0,1,6.467,0v.1H59.3ZM69.977,21.792a2.476,2.476,0,0,1-1.836.8H56.928A2.5,2.5,0,0,1,54.433,19.9L55.505,6.394a.276.276,0,0,1,.274-.253H57.9V7.871a.7.7,0,1,0,1.406,0V6.14h6.467V7.871a.7.7,0,0,0,1.406,0V6.14h2.117a.276.276,0,0,1,.274.255L70.637,19.9A2.476,2.476,0,0,1,69.977,21.792Z" transform="translate(-53.02)" fill="#565658"/></g><g transform="translate(59.162 11.714)"><path d="M190.591,250.1a.7.7,0,0,0-.994,0l-3.139,3.139-1.207-1.207a.7.7,0,0,0-.994.994l1.7,1.7a.7.7,0,0,0,.994,0l3.636-3.636A.7.7,0,0,0,190.591,250.1Z" transform="translate(-184.052 -249.893)" fill="#565658"/></g></g></svg>