<svg xmlns="http://www.w3.org/2000/svg" width="19.535" height="24" viewBox="0 0 19.535 24"><g transform="translate(-51.001)"><g transform="translate(51.001)"><path d="M70.536,1.954V23.163a.837.837,0,0,1-1.309.691l-2.785-1.9-2.633,1.89a.835.835,0,0,1-1.039-.05l-2-1.749-2,1.749a.835.835,0,0,1-1.039.05L55.1,21.953l-2.785,1.9A.837.837,0,0,1,51,23.163V1.954A1.954,1.954,0,0,1,52.954,0H68.582a1.953,1.953,0,0,1,1.953,1.953Zm-1.674,0a.279.279,0,0,0-.279-.279H52.954a.279.279,0,0,0-.279.279V21.578l1.96-1.338a.836.836,0,0,1,.96.011l2.57,1.845L60.217,20.3a.836.836,0,0,1,1.1,0L63.372,22.1l2.57-1.845a.836.836,0,0,1,.96-.011l1.96,1.338Z" transform="translate(-51.001 0)" fill="#565658" fill-rule="evenodd"/><path d="M153.839,103.674a.837.837,0,1,1,0-1.674h8.93a.837.837,0,0,1,0,1.674Z" transform="translate(-148.537 -97.535)" fill="#565658" fill-rule="evenodd"/><path d="M153.839,205.674a.837.837,0,1,1,0-1.674h8.93a.837.837,0,1,1,0,1.674Z" transform="translate(-148.537 -195.07)" fill="#565658" fill-rule="evenodd"/><path d="M153.839,307.674a.837.837,0,1,1,0-1.674H158.3a.837.837,0,0,1,0,1.674Z" transform="translate(-148.537 -292.605)" fill="#565658" fill-rule="evenodd"/></g></g></svg>