<svg xmlns="http://www.w3.org/2000/svg" width="23.577" height="24" viewBox="0 0 23.577 24"><g transform="translate(-23.922)"><path d="M54.529,33.765a6.765,6.765,0,1,0-6.765,6.765A6.766,6.766,0,0,0,54.529,33.765Zm-11.765,0a5,5,0,1,1,5,5A5,5,0,0,1,42.765,33.765Z" transform="translate(-12.055 -27)"/><path d="M24.386,89a.83.83,0,0,0,.441.118.853.853,0,0,0,.765-.441,11.639,11.639,0,0,1,20.265,0,.883.883,0,0,0,1.529-.882,13.431,13.431,0,0,0-23.353,0A.884.884,0,0,0,24.386,89Z" transform="translate(0 -65.118)"/></g></svg>