<svg xmlns="http://www.w3.org/2000/svg" width="24" height="21.604" viewBox="0 0 24 21.604"><g transform="translate(-5.432)"><path d="M6.26,28.394q6.063,0,12.126,0A2.928,2.928,0,0,0,19.423,30.3H8.369A2.173,2.173,0,0,1,6.26,28.394ZM26.492,10.071A2.174,2.174,0,0,1,28.6,11.978H24.269A2.237,2.237,0,0,1,26.492,10.071Zm-15,0H24.605a2.9,2.9,0,0,0-1.05,2.217l0,15.762A2.24,2.24,0,0,1,21.313,30.3H21.3a2.24,2.24,0,0,1-2.25-2.226.327.327,0,0,0-.346-.368H9.239V12.323a2.239,2.239,0,0,1,2.25-2.252Zm0-.687a2.94,2.94,0,0,0-2.938,2.938V27.707H5.773a.328.328,0,0,0-.341.342,2.939,2.939,0,0,0,2.937,2.938H21.3a2.994,2.994,0,0,0,2.938-2.938V12.665h4.847a.343.343,0,0,0,.344-.342,2.94,2.94,0,0,0-2.94-2.938Z" transform="translate(0 -9.384)" fill="#565658" fill-rule="evenodd"/><path d="M73.662,32.172h.987l.015,12.409-.484.65-.5-.665Zm-.377-.686a.342.342,0,0,0-.31.341l.016,12.856a.34.34,0,0,0,.069.206l.843,1.121a.343.343,0,0,0,.551,0l.83-1.11a.331.331,0,0,0,.066-.206l-.015-12.867a.342.342,0,0,0-.345-.341H73.318A.1.1,0,0,0,73.285,31.486Z" transform="translate(-47.067 -24.785)" fill="#565658"/><path d="M73.568,27.384c-.458,0-.423.687.036.687h1.491a.344.344,0,1,0,0-.687Z" transform="translate(-47.253 -21.927)" fill="#565658"/><path d="M25.356,25.8a1.4,1.4,0,0,0-1.392,1.388V29.26a1.393,1.393,0,0,0,1.392,1.384h2.028a1.394,1.394,0,0,0,1.394-1.384V28.7a.344.344,0,1,0-.688,0v.562a.694.694,0,0,1-.706.7H25.356a.692.692,0,0,1-.7-.7V27.184a.692.692,0,0,1,.7-.7h1.9a.344.344,0,1,0,0-.688Z" transform="translate(-12.914 -20.821)" fill="#565658"/><path d="M31.979,26.733a.344.344,0,0,0-.238.1l-2.195,2.187-.687-.682a.344.344,0,1,0-.486.485l.931.927a.343.343,0,0,0,.483,0l2.439-2.43a.344.344,0,0,0-.248-.589Z" transform="translate(-15.908 -21.473)" fill="#565658"/><path d="M43.638,39.525a.344.344,0,1,0,0,.687h4.129a.344.344,0,1,0,0-.687Z" transform="translate(-26.375 -30.388)" fill="#565658"/><path d="M47.658,25.8a.344.344,0,1,0,0,.688h2.918a.344.344,0,1,0,0-.688Z" transform="translate(-29.184 -20.821)" fill="#565658"/><path d="M43.638,34.947a.344.344,0,1,0,0,.687h4.129a.344.344,0,1,0,0-.687Z" transform="translate(-26.375 -27.197)" fill="#565658"/><path d="M43.638,30.373a.344.344,0,1,0,0,.687h4.129a.344.344,0,1,0,0-.687Z" transform="translate(-26.375 -24.01)" fill="#565658"/><path d="M43.667,60.588a.344.344,0,1,0,0,.688H47.8a.344.344,0,1,0,0-.688Z" transform="translate(-26.404 -45.065)" fill="#565658"/><path d="M47.661,46.854a.345.345,0,0,0,0,.69h2.918a.345.345,0,0,0,0-.69Z" transform="translate(-29.187 -35.495)" fill="#565658"/><path d="M43.667,56.01a.345.345,0,0,0,0,.69H47.8a.345.345,0,0,0,0-.69H43.667Z" transform="translate(-26.404 -41.875)" fill="#565658"/><path d="M43.667,51.432a.345.345,0,0,0,0,.69H47.8a.345.345,0,0,0,0-.69H43.667Z" transform="translate(-26.404 -38.685)" fill="#565658"/><path d="M25.356,46.863a1.4,1.4,0,0,0-1.392,1.388v2.077a1.393,1.393,0,0,0,1.392,1.385h2.028a1.4,1.4,0,0,0,1.394-1.385v-.562a.344.344,0,1,0-.688,0v.562a.693.693,0,0,1-.706.7H25.356a.691.691,0,0,1-.7-.7V48.251a.692.692,0,0,1,.7-.7h1.9a.344.344,0,1,0,0-.688Z" transform="translate(-12.914 -35.501)" fill="#565658"/><path d="M31.979,47.8a.344.344,0,0,0-.238.1l-2.195,2.187-.687-.682a.344.344,0,1,0-.486.484l.931.927a.343.343,0,0,0,.483,0l2.439-2.43A.344.344,0,0,0,31.979,47.8Z" transform="translate(-15.908 -36.156)" fill="#565658"/></g></svg>