<svg xmlns="http://www.w3.org/2000/svg" width="40" height="26.667" viewBox="0 0 40 26.667"><path d="M55.9,107.29a12.9,12.9,0,0,0-2.717-1.483c.429-.222.723-.267.723-1.184,0-1-.005-1.333-.672-1.333H50.97l-.028-.062c-1.46-3.188-1.656-3.994-3.833-5.079-2.921-1.452-8.4-1.526-10.543-1.526s-7.622.073-10.541,1.526c-2.18,1.083-2.126,1.641-3.833,5.079a.318.318,0,0,1-.033.062H19.894c-.662,0-.667.333-.667,1.333,0,.917.293.962.722,1.184a23.755,23.755,0,0,0-2.718,1.483c-.333.333-.667,2.667-.667,6.667s.333,8,.333,8h.995c0,1.167.172,1.333.672,1.333h6.667c.5,0,.667-.167.667-1.333H47.232c0,1.167.167,1.333.667,1.333h6.833c.333,0,.5-.25.5-1.333h1s.333-4.083.333-8-.417-6.25-.667-6.667ZM25.67,111.035a43.066,43.066,0,0,1-4.57.255c-1.7,0-1.76.109-1.88-.953a6.014,6.014,0,0,1,.042-1.459l.053-.254h.25a11.492,11.492,0,0,1,3.713.565,8.166,8.166,0,0,1,2.507,1.255,1.2,1.2,0,0,1,.447.513Zm20.6,6-.368.922H27.232s.033-.051-.417-.932c-.333-.652.083-1.068.743-1.305a27.728,27.728,0,0,1,9.008-1.763,23.6,23.6,0,0,1,9.042,1.763c.458.237,1.027.4.66,1.32ZM24.85,105.657a8.02,8.02,0,0,1-.808.006c.218-.387.338-.817.551-1.267.667-1.417,1.429-3.02,2.787-3.7,1.962-.977,6.028-1.417,9.186-1.417s7.224.437,9.186,1.417c1.357.676,2.117,2.28,2.787,3.7.214.454.333.888.557,1.278-.167.009-.358,0-.816-.016Zm28.977,4.676c-.178,1.04-.012.957-1.8.957a43.068,43.068,0,0,1-4.57-.255.358.358,0,0,1-.115-.592,7.82,7.82,0,0,1,2.508-1.255,10.8,10.8,0,0,1,3.757-.558.268.268,0,0,1,.257.25,5.844,5.844,0,0,1-.041,1.456Z" transform="translate(-16.565 -96.623)" fill="#007dbd"/></svg>