<svg xmlns="http://www.w3.org/2000/svg" width="40" height="39.81" viewBox="0 0 40 39.81"><path d="M36.284,28.968a.9.9,0,0,0-.625-.25.8.8,0,0,0-.625.25l-.438.438.25,2.439,1.438-1.5A.981.981,0,0,0,36.284,28.968ZM34.1,36.722,32.657,24.653v-.063l-.438-4-.563-3.815a.654.654,0,0,0-1.126-.375l-6.754,6.191a.672.672,0,0,0-.125.875,114.764,114.764,0,0,1,8.5,16.2c.063.063.063.125.125.188a.51.51,0,0,0,.75,0A3.792,3.792,0,0,0,34.1,36.722Zm-17.322.438-1.688-5.816a.744.744,0,0,0-.938-.438,7.709,7.709,0,0,1-2.126.688.668.668,0,0,0-.438,1l3.627,5.441a.661.661,0,0,0,1,.125l.313-.313A.69.69,0,0,0,16.773,37.16ZM11.9,27.78a.453.453,0,0,0-.625,0L7.518,31.594a.4.4,0,1,0,.563.563L11.9,28.343A.352.352,0,0,0,11.9,27.78Zm-3.5-3L2.953,23.465a.6.6,0,0,0-.625.188l-.375.375a.647.647,0,0,0,.063,1l5,3.377a.694.694,0,0,0,1.063-.438,9.529,9.529,0,0,1,.75-2.251A.657.657,0,0,0,8.393,24.778ZM22.964,8.707l-3.627-.563-4-.438L3.265,6.268A3.732,3.732,0,0,0,.2,7.331a.51.51,0,0,0,0,.75.481.481,0,0,0,.188.125A108.478,108.478,0,0,1,16.21,16.649a.593.593,0,0,0,.813-.125l6.316-6.691A.686.686,0,0,0,22.964,8.707ZM11.02,4.016a.981.981,0,0,0-1.376,0l-1.5,1.438,2.376.25.438-.438a.9.9,0,0,0,.25-.625A.634.634,0,0,0,11.02,4.016ZM19.4,5.267a.981.981,0,0,0-1.376,0L16.773,6.455l2.376.25.188-.188A.794.794,0,0,0,19.4,5.267ZM39.536.7c-1.376-1.376-5.878.313-8.13,2.5L10.832,25.028a6.038,6.038,0,0,0-1.251,2.626l.813-.813a1.769,1.769,0,1,1,2.5,2.5l-1,.875a7.269,7.269,0,0,0,2.877-1.313l22.2-20.261A10.513,10.513,0,0,0,40.036,2.2a2.059,2.059,0,0,0-.5-1.5ZM36.659,6.08h0a.751.751,0,0,1-.75-.563,1.25,1.25,0,0,0-1.188-1.063h-.188a.608.608,0,0,1-.625-.688.739.739,0,0,1,.688-.688h.188A2.5,2.5,0,0,1,37.222,5.33a.693.693,0,0,1-.563.75ZM35.1,20.588a.9.9,0,0,0-.625-.25,1.111,1.111,0,0,0-.625.25l-.188.188.25,2.376L35.1,21.9A1.036,1.036,0,0,0,35.1,20.588Z" transform="translate(-0.036 -0.205)" fill="#007dbd"/></svg>