<svg xmlns="http://www.w3.org/2000/svg" width="45.63" height="30.224" viewBox="0 0 45.63 30.224"><path d="M41.55,14.4c-6.027-9.9-15.106-3.013-15.106-3.013a4.706,4.706,0,0,1-2.412.813l-2.432,0a4.674,4.674,0,0,1-2.411-.81S10.109,4.5,4.081,14.4.483,35.078.483,35.078c.425,2.639,1.828,4.4,4.474,4.18s8.366-7.108,8.366-7.108a3.264,3.264,0,0,1,2.2-1.031l14.579,0a3.259,3.259,0,0,1,2.2,1.031s5.728,6.888,8.371,7.108,4.049-1.542,4.471-4.18C45.144,35.076,47.577,24.3,41.55,14.4Zm-24.214,8.06H14.21V25.47a2.914,2.914,0,0,1-1.686.493,2.037,2.037,0,0,1-1.486-.551V22.458H8.085a2.374,2.374,0,0,1-.467-1.372,3.149,3.149,0,0,1,.408-1.8h3.127V16.16a3.4,3.4,0,0,1,1.568-.318,4.135,4.135,0,0,1,1.6.377l-.013,3.067h2.953a2.94,2.94,0,0,1,.558,1.462A3.693,3.693,0,0,1,17.336,22.457Zm14.339,3.434a2.474,2.474,0,1,1,2.475-2.474A2.471,2.471,0,0,1,31.675,25.891Zm0-6.808a2.474,2.474,0,1,1,2.475-2.474A2.47,2.47,0,0,1,31.675,19.083Zm6.162,3.655a2.474,2.474,0,1,1,2.475-2.474A2.47,2.47,0,0,1,37.837,22.738Z" transform="translate(0 -9.052)" fill="#007dbd"/></svg>