<svg xmlns="http://www.w3.org/2000/svg" width="37.521" height="40" viewBox="0 0 37.521 40"><path d="M13.782,20.428a4.524,4.524,0,0,1,.671.386,4.444,4.444,0,0,1,.871.771A8.3,8.3,0,0,1,17.11,25.95,43.133,43.133,0,0,1,26.5,24.843a43.135,43.135,0,0,1,9.386,1.107,8.3,8.3,0,0,1,1.786-4.364,4.443,4.443,0,0,1,.871-.771,4.255,4.255,0,0,1,.679-.386L40.246,9.871a3.673,3.673,0,0,0-2.407-3.793A34.162,34.162,0,0,0,26.5,4,34,34,0,0,0,15.16,6.079a3.653,3.653,0,0,0-2.407,3.793Zm17.393-8.057a2.05,2.05,0,1,1-2.05,2.05,2.05,2.05,0,0,1,2.05-2.05ZM26.5,7.693a2.05,2.05,0,1,1-2.05,2.05,2.05,2.05,0,0,1,2.05-2.05Zm0,9.357a2.05,2.05,0,1,1-2.05,2.05A2.05,2.05,0,0,1,26.5,17.05Zm-4.679-4.679a2.05,2.05,0,1,1-2.05,2.05A2.05,2.05,0,0,1,21.817,12.371Z" transform="translate(-7.735 -4)" fill="#007dbd"/><path d="M11.51,44.788a3.647,3.647,0,0,0,.52.342l-1.464,4.926a.714.714,0,1,0,1.369.407l1.458-4.9h0a2.6,2.6,0,0,0,.407.029H35.188a2.6,2.6,0,0,0,.407-.029h0l1.458,4.9a.715.715,0,0,0,1.37-.407L36.962,45.13a3.647,3.647,0,0,0,.519-.342c4.679-3.65,6.371-9.35,5.593-12.864A4.984,4.984,0,0,0,42,29.674a3.558,3.558,0,0,0-1.914-1.143,3.326,3.326,0,0,0-2.736.436c-1.079.743-1.779,2.2-2.071,4.321a1.276,1.276,0,0,1-.571.907,1.165,1.165,0,0,1-.979.164A41.138,41.138,0,0,0,24.5,33.245a41.138,41.138,0,0,0-9.228,1.114,1.16,1.16,0,0,1-.979-.164,1.276,1.276,0,0,1-.571-.907c-.293-2.121-.993-3.579-2.071-4.321a3.326,3.326,0,0,0-2.736-.436,4.081,4.081,0,0,0-2.993,3.393c-.779,3.514.914,9.214,5.593,12.864Z" transform="translate(-5.735 -10.974)" fill="#007dbd"/><path d="M25.2,18.963a.621.621,0,1,0-.621-.621.621.621,0,0,0,.621.621Z" transform="translate(-11.12 -7.92)" fill="#007dbd"/><circle cx="0.621" cy="0.621" r="0.621" transform="translate(18.139 14.478)" fill="#007dbd"/><circle cx="0.621" cy="0.621" r="0.621" transform="translate(18.139 5.121)" fill="#007dbd"/><path d="M38.3,18.963a.621.621,0,1,0-.621-.621.621.621,0,0,0,.621.621Z" transform="translate(-14.863 -7.92)" fill="#007dbd"/></svg>