<svg xmlns="http://www.w3.org/2000/svg" width="35" height="43.4" viewBox="0 0 35 43.4"><g transform="translate(0 5.6)"><path d="M58.225,114.04c3.955-.105,5.18-3.045,5.495-5.53a.739.739,0,0,0-.7-.84L41,107.6c.07,3.08-.42,5.145-1.505,6.4C44.645,114.005,53.92,114.04,58.225,114.04Z" transform="translate(-30.575 -76.24)" fill="#007dbd"/><path d="M43.4,23.635A6.391,6.391,0,0,1,37.94,18H14.7a.7.7,0,0,0-.7.665v32.3a4.626,4.626,0,0,0,4.55,4.725h.385c2.17,0,3.5-.63,3.92-3.85,0-.035.14-2.03.07-3.22a.726.726,0,0,1,.735-.77l19.775.07ZM21.91,40.12,18.8,44.495a.753.753,0,0,1-1.225-.875l2.275-3.185h-2.1a.739.739,0,0,1-.595-1.19l3.115-3.85a.732.732,0,0,1,1.05-.1.764.764,0,0,1,.1,1.05l-2.135,2.625H21.28a.747.747,0,0,1,.63,1.155Zm-1.645-8.75a3.99,3.99,0,0,1-3.92-4.06c0-2.03,2.8-5.18,3.36-5.775a.741.741,0,0,1,1.085,0c.56.63,3.36,3.78,3.36,5.81A3.953,3.953,0,0,1,20.265,31.37Zm16.73,12.25H28.98a.739.739,0,0,1-.735-.735.764.764,0,0,1,.735-.735h8.015a.735.735,0,0,1,0,1.47Zm3.535-3.6H28.98a.739.739,0,0,1-.735-.735.764.764,0,0,1,.735-.735H40.53a.735.735,0,1,1,0,1.47ZM29.015,28.045a.739.739,0,0,1,.735-.735h7.56a.739.739,0,0,1,.735.735.764.764,0,0,1-.735.735H29.785A.747.747,0,0,1,29.015,28.045Zm11.62-2.625H29.785a.739.739,0,0,1-.735-.735.764.764,0,0,1,.735-.735H40.67a.739.739,0,0,1,.735.735A.771.771,0,0,1,40.635,25.42Z" transform="translate(-14 -18)" fill="#007dbd"/><path d="M24.9,37.03a2.419,2.419,0,1,0,4.83,0c0-.945-1.33-2.835-2.415-4.13C26.23,34.195,24.9,36.085,24.9,37.03Z" transform="translate(-21.085 -27.685)" fill="#007dbd"/></g><path d="M91.4,2A4.848,4.848,0,0,0,86.6,6.9,4.8,4.8,0,1,0,91.4,2ZM94.37,5.57l-3.4,3.71a.747.747,0,0,1-.98.1L88.49,8.265a.753.753,0,1,1,.875-1.225l.98.7,2.94-3.22a.729.729,0,0,1,1.05-.035A.771.771,0,0,1,94.37,5.57Z" transform="translate(-61.19 -2)" fill="#007dbd"/></svg>