<svg xmlns="http://www.w3.org/2000/svg" width="35" height="35" viewBox="0 0 35 35"><path d="M15.6,25.6a.79.79,0,0,0,.8,0l4-2.33a.78.78,0,0,0,.4-.69.79.79,0,0,0-.4-.69l-4-2.33a.77.77,0,0,0-.8,0,.78.78,0,0,0-.4.69V24.9a.81.81,0,0,0,.4.7Z" transform="translate(-0.5 0.034)" fill="#007dbd" fill-rule="evenodd"/><path d="M2,31.8A5.114,5.114,0,0,0,7,37H32a5.114,5.114,0,0,0,5-5.2V12.29H2Zm11.944-10.46a3.534,3.534,0,0,1,1.689-3.055,3.255,3.255,0,0,1,3.386.016l4.375,2.663a3.591,3.591,0,0,1,0,6.067l-4.375,2.652a3.255,3.255,0,0,1-3.386.016,3.534,3.534,0,0,1-1.689-3.055Z" transform="translate(-2 -2)" fill="#007dbd" fill-rule="evenodd"/><path d="M37,6.57A4.809,4.809,0,0,0,32,2H7A4.809,4.809,0,0,0,2,6.57V10H37ZM8.245,7.71A1.2,1.2,0,0,1,7.009,6.563,1.2,1.2,0,0,1,8.26,5.43,1.2,1.2,0,0,1,9.5,6.57a1.093,1.093,0,0,1-.369.81,1.31,1.31,0,0,1-.889.33Zm5.009,0a1.2,1.2,0,0,1-1.247-1.14,1.252,1.252,0,0,1,2.494,0,1.2,1.2,0,0,1-1.247,1.14Z" transform="translate(-2 -2)" fill="#007dbd" fill-rule="evenodd"/></svg>