<svg xmlns="http://www.w3.org/2000/svg" width="35" height="35.001" viewBox="0 0 35 35.001"><g transform="translate(0.015 0)"><path d="M33.127,22.757c-1.8-1.8-4.3-2.565-7.507-1.705L14.179,9.6l.151-.572a7.209,7.209,0,0,0-1.858-6.934A7.068,7.068,0,0,0,5.553.258,1.025,1.025,0,0,0,5.1,1.972L7.855,4.727a2.049,2.049,0,0,1,0,2.9,2.073,2.073,0,0,1-2.9,0L2.2,4.871a1.025,1.025,0,0,0-1.714.455,7.092,7.092,0,0,0,1.835,6.917c1.8,1.8,4.295,2.567,7.505,1.705L21.268,25.4c-.854,3.207-.117,5.682,1.707,7.506a7.069,7.069,0,0,0,6.918,1.834,1.025,1.025,0,0,0,.453-1.714l-2.754-2.754a2.049,2.049,0,0,1,0-2.9,2.076,2.076,0,0,1,2.9,0l2.756,2.755a1.025,1.025,0,0,0,1.713-.455A7.094,7.094,0,0,0,33.127,22.757Z" transform="translate(-0.231 0)" fill="#007dbd"/></g><g transform="translate(0 18.224)"><path d="M10.983,266.584,1.208,276.36a4.1,4.1,0,1,0,5.8,5.8l9.775-9.776ZM6.046,278.979a1.025,1.025,0,0,1-1.45-1.45l6.22-6.221a1.025,1.025,0,0,1,1.45,1.45Z" transform="translate(-0.008 -266.584)" fill="#007dbd"/></g><g transform="translate(19.573)"><path d="M301.455,2.068,299.687.3a1.025,1.025,0,0,0-1.253-.154L293,3.408a1.025,1.025,0,0,0-.2,1.6l.433.433-6.9,6.875,2.9,2.9,6.9-6.875.61.61a1.025,1.025,0,0,0,1.6-.2l3.262-5.438A1.026,1.026,0,0,0,301.455,2.068Z" transform="translate(-286.329 0)" fill="#007dbd"/></g></svg>