<svg xmlns="http://www.w3.org/2000/svg" width="45" height="43.594" viewBox="0 0 45 43.594"><path d="M39.88,8.734A4.223,4.223,0,0,1,44.1,12.953V18.02l2.5.669a4.225,4.225,0,0,1,.79.3l-4.261-15.9A2.812,2.812,0,0,0,39.68,1.1l-28.5,7.638Z" transform="translate(-3.318 -0.999)" fill="#007dbd"/><path d="M46.231,27.849,44.1,27.277V40.441A4.223,4.223,0,0,1,39.88,44.66h-28.7L39.681,52.3a2.812,2.812,0,0,0,3.445-1.988l5.1-19.016a2.812,2.812,0,0,0-1.99-3.445Z" transform="translate(-3.318 -8.801)" fill="#007dbd"/><path d="M22.281,22.055A1.055,1.055,0,0,0,21.227,21,2.23,2.23,0,0,0,19,23.11h2.224a1.055,1.055,0,0,0,1.057-1.055Z" transform="translate(-5.641 -6.937)" fill="#007dbd"/><path d="M21,31h4.219v8.437H21Z" transform="translate(-6.235 -9.906)" fill="#007dbd"/><path d="M21,26h5.625v2.109H21Z" transform="translate(-6.235 -8.422)" fill="#007dbd"/><path d="M9,31h4.219v8.437H9Z" transform="translate(-2.672 -9.906)" fill="#007dbd"/><path d="M7,26h5.625v2.109H7Z" transform="translate(-2.078 -8.422)" fill="#007dbd"/><path d="M13.388,21a1.055,1.055,0,1,0,0,2.109h2.227A2.23,2.23,0,0,0,13.388,21Z" transform="translate(-3.662 -6.937)" fill="#007dbd"/><path d="M17,26h1.406V37.953H17Z" transform="translate(-5.047 -8.422)" fill="#007dbd"/><path d="M36.562,14H2.812A2.812,2.812,0,0,0,0,16.812V36.5a2.812,2.812,0,0,0,2.812,2.812H36.562A2.812,2.812,0,0,0,39.374,36.5V16.812A2.812,2.812,0,0,0,36.562,14ZM21.8,25.25a.7.7,0,0,1-.7.7h-.7v9.14a.7.7,0,0,1-.7.7H5.625a.7.7,0,0,1-.7-.7v-9.14h-.7a.7.7,0,0,1-.7-.7V21.734a.7.7,0,0,1,.7-.7H7.5a2.461,2.461,0,0,1,2.223-3.516A3.631,3.631,0,0,1,12.656,19a3.631,3.631,0,0,1,2.93-1.487,2.461,2.461,0,0,1,2.223,3.516h3.285a.7.7,0,0,1,.7.7Zm13.359,9.14H24.609a.7.7,0,1,1,0-1.406H35.156a.7.7,0,0,1,0,1.406Zm0-3.516H24.609a.7.7,0,1,1,0-1.406H35.156a.7.7,0,0,1,0,1.406Zm0-3.516H24.609a.7.7,0,0,1,0-1.406H35.156a.7.7,0,0,1,0,1.406Zm0-3.516H24.609a.7.7,0,0,1,0-1.406H35.156a.7.7,0,0,1,0,1.406Zm0-3.516H24.609a.7.7,0,1,1,0-1.406H35.156a.7.7,0,0,1,0,1.406Z" transform="translate(0 -4.859)" fill="#007dbd"/></svg>