<svg xmlns="http://www.w3.org/2000/svg" width="78.497" height="75" viewBox="0 0 78.497 75"><path d="M169.2,295.943h37.933v2.93a7.287,7.287,0,0,1-7.284,7.284H161.193v-2.2a8.014,8.014,0,0,1,8.01-8.01Z" transform="translate(-128.994 -231.157)" fill="#ea661b"/><path d="M180.521,315.249v1.7q0,.169-.163.169h-.64q-.163,0-.163-.169v-1.759a.706.706,0,0,0-.1-.408.366.366,0,0,0-.32-.136.5.5,0,0,0-.4.169.671.671,0,0,0-.142.447v1.686a.15.15,0,0,1-.169.169h-.641a.149.149,0,0,1-.169-.169V314.07q0-.163.169-.163h.586a.147.147,0,0,1,.169.133l.048.272a1.059,1.059,0,0,1,.949-.477.879.879,0,0,1,.894.508,1.147,1.147,0,0,1,1.033-.508q1,0,1,1.184v1.934q0,.169-.163.169h-.646a.15.15,0,0,1-.169-.169V315.2q0-.55-.423-.55a.49.49,0,0,0-.4.166A.65.65,0,0,0,180.521,315.249Z" transform="translate(-141.821 -245.132)" fill="#fff"/><path d="M222,314.983v1.97q0,.169-.163.169h-.55a.151.151,0,0,1-.169-.133l-.036-.266a1.228,1.228,0,0,1-1.064.447,1.1,1.1,0,0,1-.746-.242.874.874,0,0,1-.281-.7.991.991,0,0,1,.1-.459.84.84,0,0,1,.263-.308,1.29,1.29,0,0,1,.441-.181,4.1,4.1,0,0,1,.559-.094q.281-.027.692-.033v-.115q0-.453-.622-.453a2.486,2.486,0,0,0-.87.169q-.157.067-.205-.1l-.121-.375a.151.151,0,0,1,.1-.206,3.1,3.1,0,0,1,1.245-.236Q222,313.835,222,314.983Zm-.955.949v-.254a2.8,2.8,0,0,0-.852.112.369.369,0,0,0-.266.372.339.339,0,0,0,.121.272.5.5,0,0,0,.332.1.677.677,0,0,0,.5-.166A.592.592,0,0,0,221.049,315.932Z" transform="translate(-174.142 -245.133)" fill="#fff"/><path d="M252.953,314.037h.586a.151.151,0,0,1,.169.145l.048.411a1.067,1.067,0,0,1,.354-.414.944.944,0,0,1,.571-.178q.157,0,.157.151v.665q0,.133-.145.133c-.02,0-.053,0-.1-.006s-.088-.006-.124-.006a.644.644,0,0,0-.511.217.8.8,0,0,0-.19.55v1.378q0,.169-.163.169h-.653a.149.149,0,0,1-.169-.169V314.2Q252.784,314.037,252.953,314.037Z" transform="translate(-200.534 -245.262)" fill="#fff"/><path d="M284.236,313.629h-.724a.311.311,0,0,1-.254-.132l-.917-1.125v1.088a.15.15,0,0,1-.169.169h-.653q-.163,0-.163-.169v-3.934a.144.144,0,0,1,.163-.163h.653q.169,0,.169.163v1.9l.864-.894a.334.334,0,0,1,.255-.121h.71a.119.119,0,0,1,.121.071.128.128,0,0,1-.042.145l-1.224,1.242,1.283,1.548a.147.147,0,0,1,.036.143A.1.1,0,0,1,284.236,313.629Z" transform="translate(-222.852 -241.639)" fill="#fff"/><path d="M314.232,316.5a1.821,1.821,0,0,0,.792-.181q.157-.073.218.1l.109.32a.16.16,0,0,1-.1.205,2.423,2.423,0,0,1-1.1.248,1.818,1.818,0,0,1-1.3-.438,1.629,1.629,0,0,1-.462-1.242,1.7,1.7,0,0,1,.429-1.242,1.558,1.558,0,0,1,1.166-.438,1.455,1.455,0,0,1,1.112.423,1.58,1.58,0,0,1,.4,1.13v.3q0,.163-.169.163h-1.964a.74.74,0,0,0,.281.48A.958.958,0,0,0,314.232,316.5ZM314,314.53q-.611,0-.671.755h1.287v-.042a.8.8,0,0,0-.157-.526A.566.566,0,0,0,314,314.53Z" transform="translate(-247.087 -245.133)" fill="#fff"/><path d="M346.681,312.179h-.586V313.5a.447.447,0,0,0,.075.3.388.388,0,0,0,.287.082.654.654,0,0,0,.124-.015.647.647,0,0,1,.118-.015q.133,0,.139.151l.024.4a.146.146,0,0,1-.036.112.3.3,0,0,1-.115.057,2.124,2.124,0,0,1-.538.06,1.14,1.14,0,0,1-.8-.233,1.047,1.047,0,0,1-.248-.789v-1.432h-.278q-.169,0-.169-.163v-.393a.15.15,0,0,1,.169-.169h.29v-.731q0-.145.169-.145h.6c.113,0,.169.048.169.145v.731h.6q.163,0,.163.169v.393A.144.144,0,0,1,346.681,312.179Z" transform="translate(-272.314 -242.588)" fill="#fff"/><path d="M24.712,70.809a5.88,5.88,0,0,1-6.111-5.6V63.466a1.081,1.081,0,0,1,1.08-1.08H21.5a2.175,2.175,0,0,0,2.311-2V44.42a2.176,2.176,0,0,0-2.311-2H19.682a1.081,1.081,0,0,1-1.08-1.08V39.594a5.879,5.879,0,0,1,6.111-5.6H88.8a5.879,5.879,0,0,1,6.111,5.6V65.207a5.88,5.88,0,0,1-6.111,5.6H24.712Z" transform="translate(-17.618 -26.552)" fill="#50abe0"/><path d="M85.689,31.756a5,5,0,0,1,5.239,4.729V62.1a5.006,5.006,0,0,1-5.239,4.731H21.6A5.006,5.006,0,0,1,16.363,62.1V60.356a.209.209,0,0,1,.209-.209h1.821a3.041,3.041,0,0,0,3.182-2.874V41.31a3.041,3.041,0,0,0-3.182-2.876H16.572a.209.209,0,0,1-.209-.209V36.484A5,5,0,0,1,21.6,31.756H85.689m0-1.743H21.6a6.749,6.749,0,0,0-6.982,6.472v1.741a1.954,1.954,0,0,0,1.952,1.952h1.821a1.332,1.332,0,0,1,1.439,1.133V57.273a1.331,1.331,0,0,1-1.439,1.13H16.572a1.954,1.954,0,0,0-1.952,1.952V62.1A6.75,6.75,0,0,0,21.6,68.571H85.689A6.75,6.75,0,0,0,92.671,62.1V36.484a6.749,6.749,0,0,0-6.982-6.472h0Z" transform="translate(-14.508 -23.442)" fill="#1b3050"/><path d="M107.493,10.5a6.1,6.1,0,0,0-4.645-2.4l-1.191-.043-7.745-.286L90.889,7.66,85,7.445l-3.031-.112L75.452,7.1l-8.285-.3-.027-.1A9.127,9.127,0,0,0,58.361,0H51.59a5.933,5.933,0,0,0-5.928,5.738,5.828,5.828,0,0,0,1.665,4.272A6.12,6.12,0,0,0,51.7,11.868h4.838l3.127,11.372,3.223,11.729a6.34,6.34,0,0,0,2.6,3.593,8.986,8.986,0,1,0,15.348,8.931l5.92.16a8.987,8.987,0,1,0,15.13-9.278,5.956,5.956,0,0,0,2.134-3.341l.493-2.095,1.6-6.807,2.473-10.517a6.1,6.1,0,0,0-1.092-5.115Z" transform="translate(-38.753)" fill="#fff"/><path d="M113.778,19.962a4.18,4.18,0,0,0-3.182-1.645l-1.185-.043-7.689-.284-3.006-.107-5.851-.214-3.01-.111-6.472-.234-9.611-.352-.395-1.43a7.174,7.174,0,0,0-6.9-5.257H59.75a4.005,4.005,0,0,0-4,3.87,3.91,3.91,0,0,0,1.124,2.866,4.185,4.185,0,0,0,2.988,1.27h5.833a.539.539,0,0,1,.519.395L69.59,30.958l3.2,11.636a4.425,4.425,0,0,0,4.258,3.244h.584A7.035,7.035,0,1,0,87.4,53.6l8.661.234a7.041,7.041,0,1,0,9.722-7.991h.273a4.025,4.025,0,0,0,3.934-3.112l.49-2.077,1.588-6.754,2.456-10.434a4.17,4.17,0,0,0-.748-3.5ZM75.817,24.4l3.11.113.409,4.063h-2.37L75.817,24.4Zm4.2,10.949.3,2.986h-.663l-.823-2.986Zm7.886,0v2.986H87.13l-.3-2.986Zm0-10.509v3.736h-1.75l-.383-3.814,2.133.077ZM96.19,35.348l-.107,2.986h-1.4V35.348Zm-1.509-6.773V25.084l1.881.069-.125,3.423H94.681Zm8.443,9.759h-.258l.109-2.986h.851Zm2.3-9.759h-2.2l.116-3.174,2.806.1-.724,3.071ZM98.7,46.644,84.135,46.25a6.975,6.975,0,0,0-.788-.412h16.726a6.989,6.989,0,0,0-1.374.805Z" transform="translate(-46.63 -8.034)" fill="#1b3050"/><path d="M117.023,29.849l-7.589-.28-2.969-.106-5.777-.211-2.97-.11-6.39-.232-2.994-.11-7.856-.288-.654-2.368-.1-.362a5.2,5.2,0,0,0-5.018-3.826H68.068a2.094,2.094,0,0,0-2.091,2.023,2.176,2.176,0,0,0,2.2,2.165h5.758A2.393,2.393,0,0,1,76.241,27.9l.126.459.983,3.575,2.226,8.092L80.393,43l2.344,8.531h0a2.5,2.5,0,0,0,2.408,1.836h28.637a2.128,2.128,0,0,0,2.072-1.641l.483-2.052L117.9,43l.7-2.97,1.536-6.532.19-.809a2.277,2.277,0,0,0-2.134-2.8l-1.172-.042ZM81.461,32.087l7.227.264.772,7.678H83.643l-2.181-7.942ZM86.3,49.673,84.459,43h5.3l.67,6.674H86.3Zm11.423,0H93.413L92.743,43h4.976Zm0-9.644H92.446l-.76-7.568,6.033.219v7.349Zm8.011,9.644h-5.041V43h5.281l-.24,6.674Zm.349-9.644h-5.391V32.786l5.647.207-.256,7.036Zm6.28,9.644H108.7L108.943,43h4.984Zm2.267-9.644h-5.574L109.3,33.1l6.894.252-1.572,6.674Z" transform="translate(-54.621 -17.149)" fill="#c55617"/><path d="M178.139,184.8a5.09,5.09,0,0,1-10.18,0c0-.093,0-.183.008-.272l-12.016-.325a5.749,5.749,0,0,1,.033.6,5.088,5.088,0,1,1-5.09-5.09,5.039,5.039,0,0,1,3.014.991l15.624.423a5.088,5.088,0,0,1,8.608,3.676Z" transform="translate(-116.976 -140.367)" fill="#c55617"/><path d="M120.036,26l-7.589-.28-2.969-.106L103.7,25.4l-2.97-.11-6.39-.232-2.994-.11-7.856-.288-.654-2.368-.1-.362a5.2,5.2,0,0,0-5.018-3.826H71.081a2.094,2.094,0,0,0-2.091,2.023,2.176,2.176,0,0,0,2.2,2.165h5.758a2.393,2.393,0,0,1,2.307,1.759l.126.459.983,3.575,2.226,8.092.817,2.97,2.344,8.531h0a2.5,2.5,0,0,0,2.408,1.836h28.637a2.128,2.128,0,0,0,2.072-1.641l.483-2.052,1.568-6.674.7-2.97,1.536-6.532.19-.809a2.277,2.277,0,0,0-2.134-2.8L120.036,26ZM84.474,28.237,91.7,28.5l.772,7.678H86.656l-2.181-7.942Zm4.834,17.586-1.836-6.674h5.3l.67,6.674H89.309Zm11.423,0H96.426l-.67-6.674h4.976Zm0-9.644H95.459l-.76-7.568,6.033.219v7.349Zm8.011,9.644H103.7V39.148h5.281Zm.349-9.644H103.7V28.936l5.647.207-.256,7.036Zm6.28,9.644h-3.66l.244-6.674h4.984l-1.568,6.674Zm2.267-9.644h-5.574l.252-6.926,6.894.252-1.572,6.674Z" transform="translate(-56.975 -14.142)" fill="#ec792b"/><path d="M181.152,180.947a5.09,5.09,0,0,1-10.18,0c0-.093,0-.183.008-.272l-12.016-.325a5.749,5.749,0,0,1,.033.6,5.088,5.088,0,1,1-5.09-5.09,5.039,5.039,0,0,1,3.014.991l15.624.423a5.088,5.088,0,0,1,8.608,3.676Z" transform="translate(-119.33 -137.36)" fill="#ec792b"/><path d="M212.5,52.49l20.313.653a2.21,2.21,0,0,1,2.249,2.325s-.014.214-.049.45S232.59,66.67,232.59,66.67l1.527-10.877s.133-1.914-1.473-2.052L212.5,52.49Z" transform="translate(-169.071 -40.999)" fill="#fff"/><path d="M271.889,177.4s3.18.026,4.463,2.642a4.983,4.983,0,0,1-.205,4.565,5.763,5.763,0,0,0-.38-4.828,6.178,6.178,0,0,0-3.877-2.379Z" transform="translate(-215.457 -138.565)" fill="#fff"/><path d="M170.054,177.4s3.18.026,4.463,2.642a4.983,4.983,0,0,1-.205,4.565,5.763,5.763,0,0,0-.38-4.828,6.178,6.178,0,0,0-3.877-2.379Z" transform="translate(-135.915 -138.565)" fill="#fff"/><path d="M190.713,182.538s4.213-.467,14.365.378C205.078,182.916,199.019,182.748,190.713,182.538Z" transform="translate(-152.052 -142.478)" fill="#fff"/><path d="M29.4,239.129a2.181,2.181,0,0,1-2.186-1.616,2.164,2.164,0,0,1-2.167,1.616H22.887a2.164,2.164,0,0,1-2.167-1.616,2.181,2.181,0,0,1-2.186,1.616H16.379a2.2,2.2,0,0,1-2.271-2.271v-9.7a2.187,2.187,0,0,1,2.271-2.251h1.973a2.371,2.371,0,0,1,1.265.35,5.789,5.789,0,0,1,2.661-.594,5.174,5.174,0,0,1,3.132.914,6,6,0,0,1,3.356-.914c3.167,0,5.057,2.126,5.057,5.688v6.509a2.186,2.186,0,0,1-2.25,2.271H29.4Z" transform="translate(-14.108 -175.481)" fill="#fff"/><path d="M101.389,230.748a5.372,5.372,0,0,1-3.85-1.245,5.118,5.118,0,0,1-1.37-3.894v-3.236a2.164,2.164,0,0,1-1.505-2.134v-1.322a2.182,2.182,0,0,1,1.546-2.166v-.865a2.158,2.158,0,0,1,2.271-2.19h2.034a2.158,2.158,0,0,1,2.271,2.19v.76h.312a2.186,2.186,0,0,1,2.25,2.271v1.322a2.177,2.177,0,0,1-2.25,2.25h-.272v2.252a2.947,2.947,0,0,1,.333-.02,2.143,2.143,0,0,1,2.168,2.142l.083,1.359v.052a2.172,2.172,0,0,1-.673,1.63,2.648,2.648,0,0,1-1.037.566l-.05.014a8.908,8.908,0,0,1-2.26.264Z" transform="translate(-77.029 -166.916)" fill="#fff"/><path d="M168.08,239.353a7.412,7.412,0,0,1-5.313-1.914,8.276,8.276,0,0,1-.028-10.855,7.283,7.283,0,0,1,5.26-1.922,7.827,7.827,0,0,1,4.141.981,2.254,2.254,0,0,1,1,2.825l-.595,1.363a2.172,2.172,0,0,1-2.029,1.355,2.7,2.7,0,0,1-.93-.175l-.052-.02a2.95,2.95,0,0,0-1.151-.241c-.55,0-.882,0-.882,1.248a1.789,1.789,0,0,0,.225,1.078c.044.047.177.19.657.19a2.358,2.358,0,0,0,1.1-.232l.059-.031.061-.026a2.522,2.522,0,0,1,1-.215,2.179,2.179,0,0,1,2.035,1.4l.578,1.3a2.281,2.281,0,0,1-.936,2.832,6.41,6.41,0,0,1-1.95.785A9.371,9.371,0,0,1,168.08,239.353Z" transform="translate(-128.628 -175.48)" fill="#fff"/><path d="M213.175,239.292a5.381,5.381,0,0,1-3.621-1.225,4.578,4.578,0,0,1-1.538-3.649,5.026,5.026,0,0,1,.525-2.325,4.552,4.552,0,0,1,1.271-1.541,2.422,2.422,0,0,1-.523-.952l-.4-1.23a2.19,2.19,0,0,1,1.236-2.76,12.221,12.221,0,0,1,4.9-.948c4.145,0,6.522,2.029,6.522,5.566v6.631a2.186,2.186,0,0,1-2.25,2.271h-1.851a2.331,2.331,0,0,1-1.343-.4,7.1,7.1,0,0,1-2.929.567Z" transform="translate(-165.567 -175.481)" fill="#fff"/><path d="M268.188,239.353a11.74,11.74,0,0,1-4.186-.7,2.211,2.211,0,0,1-1.387-2.757l.33-1.127a2.143,2.143,0,0,1,1.271-1.5,4.6,4.6,0,0,1-1.655-3.731,4.452,4.452,0,0,1,1.852-3.772,7.13,7.13,0,0,1,4.162-1.1,10.41,10.41,0,0,1,4.018.683,2.21,2.21,0,0,1,1.338,2.734l-.351,1.158a2.267,2.267,0,0,1-1.062,1.356q.135.094.271.2a4.078,4.078,0,0,1,1.312,1.636,5.024,5.024,0,0,1,.386,2.014c0,1.836-.818,4.915-6.3,4.915Z" transform="translate(-208.133 -175.48)" fill="#fff"/><path d="M319.644,227.373a2.186,2.186,0,0,1-2.25-2.271v-5.817c0-.082,0-.151-.008-.208a.778.778,0,0,0-.1.011,1.051,1.051,0,0,0-.071.441v5.594a2.186,2.186,0,0,1-2.271,2.25h-2.2a2.186,2.186,0,0,1-2.25-2.271V211.861a2.177,2.177,0,0,1,2.25-2.25h2.2a2.186,2.186,0,0,1,2.271,2.25v1.2a7.2,7.2,0,0,1,1.553-.16c3.4,0,5.342,2.1,5.342,5.769V225.1a2.2,2.2,0,0,1-2.271,2.271Z" transform="translate(-245.615 -163.724)" fill="#fff"/><path d="M31.663,237.193v5.736q0,.569-.549.569H28.957q-.549,0-.549-.569v-5.919a2.376,2.376,0,0,0-.325-1.373A1.232,1.232,0,0,0,27,235.179a1.668,1.668,0,0,0-1.353.569,2.263,2.263,0,0,0-.478,1.5v5.675a.5.5,0,0,1-.569.569H22.449a.5.5,0,0,1-.57-.569v-9.7q0-.55.57-.55h1.973a.5.5,0,0,1,.569.448l.163.915a3.566,3.566,0,0,1,3.193-1.607,2.957,2.957,0,0,1,3.01,1.708,3.862,3.862,0,0,1,3.478-1.708q3.356,0,3.356,3.987v6.509q0,.569-.549.569H35.466a.5.5,0,0,1-.569-.569v-5.9q0-1.851-1.424-1.851a1.652,1.652,0,0,0-1.342.559,2.192,2.192,0,0,0-.468,1.455Z" transform="translate(-20.178 -181.55)" fill="#1b3050"/><path d="M109.167,226.859h-1.973v4.454a1.5,1.5,0,0,0,.254,1.007,1.3,1.3,0,0,0,.966.275,2.208,2.208,0,0,0,.417-.051,2.182,2.182,0,0,1,.4-.051q.447,0,.468.508l.081,1.342a.492.492,0,0,1-.122.376,1.016,1.016,0,0,1-.386.193,7.171,7.171,0,0,1-1.81.2,3.836,3.836,0,0,1-2.685-.783,3.525,3.525,0,0,1-.834-2.654v-4.821H103q-.57,0-.57-.549v-1.322a.5.5,0,0,1,.57-.569h.976v-2.461q0-.488.569-.488h2.034q.569,0,.569.488v2.461h2.014q.549,0,.549.569v1.322a.485.485,0,0,1-.549.549Z" transform="translate(-83.099 -172.987)" fill="#1b3050"/><path d="M168.495,238.067a5.56,5.56,0,0,1,1.495-4.19,5.622,5.622,0,0,1,4.078-1.444,6.152,6.152,0,0,1,3.254.732.562.562,0,0,1,.305.752l-.569,1.3q-.2.488-.814.264a4.592,4.592,0,0,0-1.79-.366q-2.583,0-2.583,2.949a3.188,3.188,0,0,0,.681,2.238,2.47,2.47,0,0,0,1.9.732,4.01,4.01,0,0,0,1.892-.427.526.526,0,0,1,.793.285l.569,1.281a.6.6,0,0,1-.305.773,4.8,4.8,0,0,1-1.414.549,7.647,7.647,0,0,1-1.841.224,5.752,5.752,0,0,1-4.139-1.444A5.545,5.545,0,0,1,168.495,238.067Z" transform="translate(-134.698 -181.551)" fill="#1b3050"/><path d="M225.916,236.3v6.631q0,.569-.549.569h-1.851a.51.51,0,0,1-.57-.447l-.122-.9a4.133,4.133,0,0,1-3.58,1.505,3.718,3.718,0,0,1-2.512-.814,2.941,2.941,0,0,1-.946-2.359,3.334,3.334,0,0,1,.336-1.546,2.826,2.826,0,0,1,.885-1.038,4.351,4.351,0,0,1,1.485-.61,13.862,13.862,0,0,1,1.881-.315q.946-.092,2.329-.112v-.386q0-1.526-2.095-1.526a8.365,8.365,0,0,0-2.929.569q-.529.224-.692-.346l-.407-1.261a.507.507,0,0,1,.325-.691,10.442,10.442,0,0,1,4.19-.793q4.82,0,4.82,3.864Zm-3.214,3.193v-.854a9.435,9.435,0,0,0-2.868.376,1.243,1.243,0,0,0-.895,1.251,1.141,1.141,0,0,0,.407.915,1.673,1.673,0,0,0,1.119.346,2.278,2.278,0,0,0,1.678-.559,1.993,1.993,0,0,0,.559-1.475Z" transform="translate(-171.637 -181.551)" fill="#1b3050"/><path d="M278.851,240.508q0,3.214-4.6,3.214a10.012,10.012,0,0,1-3.58-.59.5.5,0,0,1-.366-.671l.346-1.18q.122-.528.692-.346a7.611,7.611,0,0,0,2.339.386q1.911,0,1.912-.915a.8.8,0,0,0-.437-.712,7.42,7.42,0,0,0-1.454-.59,8.867,8.867,0,0,1-2.258-1.017,2.9,2.9,0,0,1-1.119-2.481,2.716,2.716,0,0,1,1.129-2.38,5.478,5.478,0,0,1,3.183-.793,8.715,8.715,0,0,1,3.356.549.521.521,0,0,1,.366.692l-.346,1.139a.489.489,0,0,1-.692.366,7.354,7.354,0,0,0-2.176-.346q-1.566,0-1.566.875a.8.8,0,0,0,.437.712,9.457,9.457,0,0,0,1.495.651q.834.3,1.312.529a5.841,5.841,0,0,1,1.007.62,2.379,2.379,0,0,1,.773.956,3.318,3.318,0,0,1,.244,1.332Z" transform="translate(-214.198 -181.551)" fill="#1b3050"/><path d="M328.481,224.744v6.427a.5.5,0,0,1-.569.569h-2.2q-.55,0-.549-.569v-5.817a2.3,2.3,0,0,0-.376-1.434,1.5,1.5,0,0,0-1.251-.478,1.791,1.791,0,0,0-1.465.59,2.379,2.379,0,0,0-.488,1.566v5.594q0,.549-.569.549h-2.2q-.549,0-.549-.569V217.93a.485.485,0,0,1,.549-.549h2.2q.569,0,.569.549V222.2a3.537,3.537,0,0,1,3.254-1.525Q328.481,220.676,328.481,224.744Z" transform="translate(-251.685 -169.794)" fill="#1b3050"/></svg>